{"title":"Paranormal.Movie.2013.UNRATED.WEBRip XViD juggs","uid":8375364,"size":742005731,"categoryP":"video","categoryS":"movies","magnet":"?xt=urn:btih:c266883ef5ec1e1808e5e2df12c689627cab57b8&amp;dn=Paranormal.Movie.2013.UNRATED.WEBRip+XViD+juggs&amp;tr=udp%3A%2F%2Ftracker.openbittorrent.com%3A80&amp;tr=udp%3A%2F%2Fopen.demonii.com%3A1337&amp;tr=udp%3A%2F%2Ftracker.coppersurfer.tk%3A6969&amp;tr=udp%3A%2F%2Fexodus.desync.com%3A6969","seeders":0,"leechers":1,"uploader":"juggs99","files":3,"time":1366039877,"description":"Source : NGB(Thanks)\n &lt;a href=&quot;\nhttp://www.imdb.com/title/tt2392846/&quot; rel=&quot;nofollow&quot; target=&quot;_NEW&quot;&gt;\nhttp://www.imdb.com/title/tt2392846/&lt;/a&gt;\n\n\nFormat                                   : AVI\nFormat/Info                              : Audio Video Interleave\nFile size                                : 700 MiB\nDuration                                 : 1h 27mn\nOverall bit rate                         : 1 116 Kbps\nWriting library                          : VirtualDub build 32842/release\n\nVideo\nID                                       : 0\nFormat                                   : MPEG-4 Visual\nFormat profile                           : Advanced Simple@L5\nFormat settings, BVOP                    : 2\nFormat settings, QPel                    : No\nFormat settings, GMC                     : No warppoints\nFormat settings, Matrix                  : Default (H.263)\nMuxing mode                              : Packed bitstream\nCodec ID                                 : XVID\nCodec ID/Hint                            : XviD\nDuration                                 : 1h 27mn\nBit rate                                 : 978 Kbps\nWidth                                    : 640 pixels\nHeight                                   : 352 pixels\nDisplay aspect ratio                     : 16:9\nFrame rate                               : 23.976 fps\nColor space                              : YUV\nChroma subsampling                       : 4:2:0\nBit depth                                : 8 bits\nScan type                                : Progressive\nCompression mode                         : Lossy\nBits/(Pixel*Frame)                       : 0.181\nStream size                              : 614 MiB (88%)\nWriting library                          : XviD 1.2.0.dev47 (UTC 2006-11-01)\n\nAudio\nID                                       : 1\nFormat                                   : MPEG Audio\nFormat version                           : Version 1\nFormat profile                           : Layer 3\nCodec ID                                 : 55\nCodec ID/Hint                            : MP3\nDuration                                 : 1h 27mn\nBit rate mode                            : Constant\nBit rate                                 : 128 Kbps\nChannel(s)                               : 2 channels\nSampling rate                            : 44.1 KHz\nCompression mode                         : Lossy\nStream size                              : 80.4 MiB (11%)\nAlignment                                : Split accross interleaves\nInterleave, duration                     : 42 ms (1.00 video frame)\nInterleave, preload duration             : 500 ms\nWriting library                          : LAME3.99r\nEncoding settings                        : -m s -V 4 -q 3 -lowpass 17 -b 128\n\n &lt;a href=&quot;\nhttp://www.shotpix.com/images/89078981968826084844.png&quot; rel=&quot;nofollow&quot; target=&quot;_NEW&quot;&gt;\nhttp://www.shotpix.com/images/89078981968826084844.png&lt;/a&gt; &lt;a href=&quot;\nhttp://www.shotpix.com/images/32092931123879524644.png&quot; rel=&quot;nofollow&quot; target=&quot;_NEW&quot;&gt;\nhttp://www.shotpix.com/images/32092931123879524644.png&lt;/a&gt; &lt;a href=&quot;\nhttp://www.shotpix.com/images/43978286495036631992.png&quot; rel=&quot;nofollow&quot; target=&quot;_NEW&quot;&gt;\nhttp://www.shotpix.com/images/43978286495036631992.png&lt;/a&gt;","torrent":{"xt":"urn:btih:c266883ef5ec1e1808e5e2df12c689627cab57b8","amp;dn":"Paranormal.Movie.2013.UNRATED.WEBRip+XViD+juggs","amp;tr":["udp%3A%2F%2Ftracker.openbittorrent.com%3A80","udp%3A%2F%2Fopen.demonii.com%3A1337","udp%3A%2F%2Ftracker.coppersurfer.tk%3A6969","udp%3A%2F%2Fexodus.desync.com%3A6969"],"infoHash":"c266883ef5ec1e1808e5e2df12c689627cab57b8","infoHashBuffer":{"type":"Buffer","data":[194,102,136,62,245,236,30,24,8,229,226,223,18,198,137,98,124,171,87,184]},"announce":[],"urlList":[]}}